<?xml version="1.0" encoding="UTF-8" standalone="no"?>
<!-- Created with Inkscape (http://www.inkscape.org/) -->
<svg xmlns:dc="http://purl.org/dc/elements/1.1/" xmlns:cc="http://creativecommons.org/ns#" xmlns:rdf="http://www.w3.org/1999/02/22-rdf-syntax-ns#" xmlns:svg="http://www.w3.org/2000/svg" xmlns="http://www.w3.org/2000/svg" version="1.1" width="256.03729" height="300" id="svg2998">
  <title id="title3015">UNHCR</title>
  <defs id="defs3000"/>
  <metadata id="metadata3003">
    <rdf:RDF>
      <cc:Work rdf:about="">
        <dc:format>image/svg+xml</dc:format>
        <dc:type rdf:resource="http://purl.org/dc/dcmitype/StillImage"/>
        <dc:title>UNHCR</dc:title>
        <dc:rights>
          <cc:Agent>
            <dc:title>UNHCR</dc:title>
          </cc:Agent>
        </dc:rights>
      </cc:Work>
    </rdf:RDF>
  </metadata>
  <g transform="translate(2.49997, -754.862)" id="layer1">
    <g transform="matrix(0.149549, 0, 0, 0.149549, -152.307, 1161.53)" id="Logo">
      <path d="m 1890.1973,-734.3294 c -4.9909,-2.59992 -8.4748,-5.86324 -10.2475,-9.59925 -4.111,-8.66306 -3.6556,-9.26366 7.0255,-9.26366 8.6044,0 10.2723,0.56076 14.6304,4.91884 6.7449,6.74486 15.0264,6.79309 21.6932,0.12626 2.6361,-2.636 4.8528,-6.50959 4.926,-8.60796 0.073,-2.09838 0.2807,-5.81242 0.4611,-8.25348 0.2903,-3.93326 0.036,-4.17362 -2.243,-2.11213 -4.2594,3.85471 -14.2563,7.3725 -20.8433,7.33414 -7.1068,-0.041 -18.0084,-4.58419 -22.1249,-9.22019 -10.6535,-11.99752 -11.6405,-37.17045 -2.0306,-51.78677 8.3387,-12.68271 28.498,-16.95668 40.753,-8.64041 7.1901,4.87948 7.2322,4.88685 6.9419,1.2297 -0.19,-2.39415 1.4146,-2.94867 9.6877,-3.34891 l 9.9154,-0.47942 -0.2697,39.01028 c -0.2773,40.14569 -0.9753,44.95335 -7.743,53.32372 -7.9334,9.81161 -36.232,12.81866 -50.5322,5.3694 z m 29.7871,-43.50559 c 4.987,-2.66894 8.1072,-10.4971 8.1072,-20.33936 0,-7.69388 -0.7223,-9.88177 -4.751,-14.3907 -3.8671,-4.32808 -5.978,-5.31725 -11.3462,-5.31725 -4.1664,0 -7.8565,1.14117 -10.0197,3.09887 -7.9482,7.19312 -8.4683,26.25573 -0.9379,34.38132 4.2502,4.58565 12.9687,5.76698 18.9476,2.56712 z m 342.5386,43.90812 c -7.0338,-3.55337 -14.7073,-12.44842 -14.7073,-17.04851 0,-1.61337 2.6443,-2.21693 9.7115,-2.21693 8.6045,0 10.2724,0.56076 14.6305,4.91884 3.3676,3.36777 6.5353,4.91885 10.0451,4.91885 6.9867,0 14.574,-4.20119 15.5998,-8.63781 1.4358,-6.20904 2.279,-15.95636 1.3803,-15.95636 -0.4691,0 -2.9697,1.5073 -5.557,3.34956 -11.2498,8.01065 -31.9127,5.03361 -40.1658,-5.787 -13.203,-17.3097 -8.8151,-49.10911 8.1483,-59.05007 9.7306,-5.70273 22.7354,-5.70175 31.1405,0 7.2828,4.9421 7.4536,4.96407 6.3696,0.8198 -0.7942,-3.03804 -0.05,-3.27923 10.1194,-3.27923 l 10.9768,0 -0.538,39.76056 c -0.6376,47.12568 -1.3603,49.70937 -16.0511,57.3839 -11.6137,6.06705 -29.9927,6.43481 -41.1026,0.82227 z m 30.9552,-46.0565 c 10.5442,-11.22379 6.9454,-33.37542 -6.0552,-37.27046 -5.1999,-1.55797 -7.1679,-1.42468 -11.419,0.77372 -2.825,1.46089 -5.8306,3.95326 -6.6793,5.53878 -4.9502,9.24953 -3.1876,25.31935 3.4557,31.50855 5.1165,4.76667 15.9737,4.47793 20.6978,-0.55059 z m 279.3046,39.49805 c 0.4954,-8.60582 0.4968,-8.60778 5.7213,-8.08525 6.3382,0.63388 11.4071,-1.84078 12.8073,-6.25297 0.6649,-2.09493 -3.7245,-15.98096 -12.1859,-38.55069 -7.2741,-19.402 -13.2255,-36.00602 -13.2255,-36.8978 0,-0.90079 4.6854,-1.62156 10.5417,-1.62156 l 10.5417,0 7.8616,23.77435 c 4.3239,13.07589 8.3105,23.77435 8.8589,23.77435 0.5486,0 4.1505,-10.14509 8.0039,-22.54465 3.8537,-12.39954 7.5572,-23.13605 8.2295,-23.85896 0.6726,-0.72274 5.7153,-1.09166 11.2064,-0.8198 l 9.9834,0.49452 -15.4721,41.46853 c -8.5095,22.80763 -16.6174,43.6838 -18.0176,46.39146 -4.1003,7.92867 -11.3496,11.32331 -24.1973,11.33035 l -11.1529,0 0.4956,-8.60795 z m -1322.6699,-15.88192 c -18.6101,-3.19165 -30.3329,-18.32395 -30.3329,-39.15504 0,-21.67467 16.3684,-38.01093 38.0856,-38.01093 12.1733,0 18.5958,2.72783 26.1601,11.11066 6.5788,7.2907 9.5135,15.35789 9.5276,26.19048 l 0.016,6.96835 -26.2337,0 c -28.724,0 -28.8379,0.0458 -23.8972,9.59992 2.6267,5.07918 8.751,8.43873 15.3666,8.42972 4.8774,0 15.0892,-5.5345 15.0892,-8.16787 0,-0.9236 4.012,-1.66372 9.0179,-1.66372 9.7052,0 10.3773,0.81324 6.6422,8.03605 -4.0002,7.73553 -13.0707,14.443 -22.1699,16.39447 -4.6244,0.99181 -8.9252,1.71095 -9.5571,1.59796 -0.6319,-0.1131 -4.1002,-0.71125 -7.7075,-1.33005 z m 21.7647,-49.40212 c 0.8088,-4.19953 -5.8859,-11.16246 -11.7989,-12.27165 -6.8026,-1.27628 -15.0936,2.68814 -17.732,8.47841 -2.6127,5.73438 -0.7133,6.52336 15.4939,6.43547 10.9521,-0.059 13.637,-0.56467 14.037,-2.64223 z m 92.5659,48.501 c -11.7172,-3.29759 -17.7279,-8.1323 -22.6711,-18.23576 -3.8538,-7.87701 -4.233,-10.74386 -5.1121,-38.64283 -0.5222,-16.574 -0.4273,-33.61872 0.2116,-37.87712 l 1.1611,-7.74274 10.5569,0 10.5571,0 0.076,29.10293 c 0.089,33.38458 0.7569,43.39065 3.2009,47.95762 5.0327,9.40332 25.7756,11.03982 34.1291,2.69256 l 4.4025,-4.39924 0.4954,-37.6771 0.4957,-37.67677 11.4989,0 11.4988,0 -0.5171,38.94058 c -0.487,36.66448 -0.732,39.34246 -4.1912,45.81416 -3.9108,7.31628 -11.3714,13.8939 -19.086,16.82699 -8.1336,3.09248 -27.2783,3.57059 -36.708,0.91672 z m 448.1098,0.56631 c -8.1495,-1.88653 -13.5226,-6.84011 -15.6238,-14.40413 -0.8954,-3.22331 -1.6321,-18.25428 -1.6371,-33.40216 l -0.017,-27.54167 9.925,0.48811 9.9251,0.48812 0.3224,24.66941 c 0.2616,20.01143 0.8453,25.46692 3.0918,28.89287 5.522,8.42138 19.633,6.68831 23.6409,-2.90359 1.583,-3.78847 2.283,-12.51955 2.283,-28.47133 l 0,-23.00717 9.6621,0 c 6.2624,0 9.9095,0.72109 10.3643,2.04951 0.3863,1.12723 0.6495,17.54383 0.5856,36.48133 l -0.1162,34.43182 -10.3953,0.49204 c -6.3442,0.30022 -10.0161,-0.12132 -9.4223,-1.08181 0.5348,-0.86555 0.5531,-2.66716 0.039,-4.00343 -0.7576,-1.9741 -1.7186,-1.70127 -5.1241,1.45482 -2.3053,2.13641 -6.8684,4.33447 -10.1402,4.8844 -3.2719,0.54976 -7.0556,1.22216 -8.4082,1.494 -1.3528,0.27186 -5.3865,-0.18314 -8.9637,-1.01114 z m 174.5644,-0.0606 c -9.9002,-1.76062 -19.4107,-8.76455 -24.096,-17.74502 -3.3118,-6.34808 -3.7871,-9.34151 -3.4034,-21.43873 0.3862,-12.18328 1.0497,-14.97242 4.9687,-20.89093 2.4877,-3.75684 7.5986,-8.86602 11.3576,-11.35365 6.0566,-4.00785 8.3552,-4.52286 20.191,-4.52286 11.9093,0 14.1139,0.5014 20.3503,4.62846 8.1353,5.38366 14.0833,16.72812 15.8412,30.21328 l 1.1222,8.60795 -27.2648,0 c -14.9956,0 -27.2648,0.62764 -27.2648,1.39498 0,0.76716 0.7891,3.65877 1.7537,6.42579 3.6789,10.55335 20.3619,13.1341 29.3345,4.53778 3.505,-3.35791 5.9783,-4.1605 12.8204,-4.1605 8.4778,0 8.4778,0 6.8378,4.31315 -6.1987,16.30396 -21.8711,23.66728 -42.5484,19.9903 z m 23.2792,-47.03092 c 0.6294,-0.12461 0.3452,-2.51991 -0.6318,-5.32234 -2.1312,-6.11329 -10.7586,-10.37234 -17.8543,-8.81387 -4.3697,0.95981 -12.9911,9.10588 -12.9911,12.27508 0,0.76653 1.2911,1.7016 2.8693,2.07822 2.483,0.59239 25.4056,0.41859 28.6079,-0.21709 z m 58.7013,47.42147 c -19.1806,-2.83703 -31.1526,-17.88274 -31.1526,-39.15062 0,-21.59825 16.376,-38.01092 37.926,-38.01092 11.707,0 15.9237,1.57386 24.1648,9.01917 7.3281,6.62074 11.6917,17.1318 11.6917,28.16408 l 0,7.08624 -26.2338,0 c -28.724,0 -28.8379,0.0458 -23.8973,9.59992 2.6264,5.07917 8.751,8.43873 15.3666,8.42972 4.8773,0 15.0891,-5.5345 15.0891,-8.16787 0,-0.9236 4.012,-1.66372 9.0178,-1.66372 9.6666,0 10.3791,0.83635 6.705,7.86963 -6.872,13.15393 -21.2396,19.40364 -38.6773,16.82437 z m 20.8504,-48.80284 c 1.228,-3.20068 -4.0026,-10.23083 -9.0489,-12.16197 -8.9157,-3.41204 -23.8183,5.27249 -21.1188,12.30707 1.2159,3.16905 28.947,3.03576 30.1677,-0.14427 z m 270.5879,48.55478 c -12.7206,-1.42827 -20.934,-7.05066 -26.4398,-18.09934 -7.2724,-14.594 -5.4868,-34.61366 4.1275,-46.27751 13.695,-16.61434 43.7575,-16.87717 56.2554,-0.49189 5.026,6.5896 9.0991,18.56221 9.0991,26.74664 l 0,5.47811 -27.0849,0 -27.0847,0 1.0663,4.50892 c 3.187,13.47776 20.8039,17.92505 30.4995,7.69929 3.0246,-3.19021 5.4103,-3.95901 12.3562,-3.9818 4.7345,-0.0164 8.608,0.37711 8.608,0.87293 0,1.75929 -5.355,11.44218 -7.9819,14.433 -6.58,7.49105 -18.6196,10.77354 -33.4207,9.11165 z m 21.7272,-47.85023 c 0,-0.74406 -1.072,-3.42564 -2.3821,-5.95917 -3.1561,-6.10329 -10.8409,-9.26183 -17.728,-7.28661 -5.7251,1.64208 -13.9842,11.87735 -11.0482,13.69208 2.5059,1.54877 31.1583,1.1382 31.1583,-0.4463 z m 135.9086,47.26225 c -10.6911,-2.71453 -17.0527,-7.95145 -22.0386,-18.14229 -3.3895,-6.92783 -4.3709,-11.32856 -4.3244,-19.39134 0.1393,-24.2113 14.3859,-38.71989 38.0195,-38.71989 16.2665,0 28.2478,6.77471 32.6829,18.48037 3.2442,8.56221 2.5929,9.32103 -7.9993,9.32103 -9.0097,0 -9.9114,-0.34056 -11.9023,-4.49401 -2.7545,-5.74749 -9.8171,-9.17443 -16.0747,-7.79995 -15.0415,3.30365 -19.5525,30.58758 -7.1136,43.02632 3.4253,3.42532 5.1744,3.95343 10.6588,3.21774 7.4797,-1.00328 12.1198,-4.52434 13.5684,-10.29643 0.9207,-3.66797 1.7796,-3.97835 11.01,-3.97835 l 10.0114,0 -1.0605,5.30183 c -3.6651,18.32643 -24.1115,28.8898 -45.4376,23.47497 z m -832.3492,-2.72356 c -21.1717,-10.47989 -25.4488,-44.33915 -8.0301,-63.57063 5.6377,-6.22462 15.5491,-9.95523 26.5544,-9.99524 18.7658,-0.0688 31.6058,10.74322 35.3912,29.79977 2.9571,14.88765 3.7879,14.43365 -26.4157,14.43365 l -26.3164,0 1.0473,4.50892 c 1.9052,8.20429 7.9224,12.70699 16.9805,12.70699 6.5513,0 8.9308,-0.84097 12.7595,-4.50893 3.8997,-3.73635 6.1659,-4.50893 13.2245,-4.50893 4.6849,0 8.5182,0.59338 8.5182,1.31857 0,4.14985 -10.45,16.96291 -16.2461,19.91979 -9.2525,4.72026 -27.8252,4.66862 -37.4673,-0.10331 z m 33.2777,-44.42163 c 0.634,-0.63388 -0.2393,-3.53534 -1.9402,-6.44776 -5.1141,-8.75667 -17.9558,-10.08754 -24.7226,-2.56223 -4.1427,4.60683 -5.6795,8.96589 -3.4259,9.71715 3.2097,1.06984 28.9161,0.46566 30.0887,-0.70716 z m -637.0481,5.32644 0,-41.06502 -4.509,-0.0967 c -2.4798,-0.0524 -9.4893,-0.12132 -15.5762,-0.15085 l -11.0675,-0.0542 0,-9.68682 0,-9.68682 41.8102,0 41.81,0 0,9.44432 0,9.44415 -13.8507,0.24365 c -7.6179,0.13445 -14.6509,0.73799 -15.6287,1.34219 -1.2056,0.7452 -1.7229,13.85143 -1.6074,40.73005 l 0.1702,39.63152 -10.7754,0.48483 -10.7755,0.48483 0,-41.06519 z m 59.026,-9.9126 0,-50.82776 10.6574,0 10.6575,0 0,19.22034 c 0,17.88437 0.1779,18.96618 2.5589,15.56679 5.8028,-8.28446 23.0344,-11.34545 34.1566,-6.06755 10.2507,4.86425 11.5898,9.58795 12.1932,43.01322 l 0.54,29.92289 -10.6773,0 -10.6773,0 -0.5203,-27.189 c -0.5836,-30.50922 -1.1356,-31.8883 -12.7207,-31.78485 -12.4842,0.11155 -14.8531,5.87326 -14.8531,36.12604 l 0,22.84781 -10.6575,0 -10.6574,0 0,-50.82793 z m 298.4091,0 0,-50.82776 11.3734,0 11.3735,0 21.009,33.6922 21.0087,33.69235 0.4433,-33.69235 0.4431,-33.6922 10.6242,0 10.6242,0 0,50.82776 0,50.82793 -11.8872,-0.0196 -11.8872,-0.0196 -20.4951,-33.14866 -20.4952,-33.14865 -0.4439,33.16816 -0.4437,33.16801 -10.6236,0 -10.6235,0 0,-50.82792 z m 132.8014,50.41803 c -0.053,-3.0351 -0.1114,-97.71439 -0.062,-99.19627 0.053,-1.56534 7.4395,-2.04952 31.2739,-2.04952 34.0902,0 38.7225,0.92163 46.4768,9.24593 9.9681,10.70059 9.2099,30.37133 -1.5336,39.80449 -5.3591,4.7052 -5.4753,5.03214 -2.3773,6.68994 5.3251,2.84998 8.4201,11.02262 9.8579,26.03226 0.7452,7.77946 1.865,15.43564 2.4881,17.01374 1.0142,2.56846 -0.079,2.86933 -10.4191,2.86933 l -11.5522,0 -0.9202,-7.37826 c -0.5062,-4.05804 -1.3621,-10.8829 -1.902,-15.16637 -0.54,-4.28349 -1.6185,-8.97819 -2.3969,-10.43253 -2.448,-4.57516 -10.1963,-6.54385 -23.7623,-6.03803 l -12.9857,0.48435 0.353,19.26542 0.353,19.26542 -11.4423,0 c -6.2934,0 -11.4454,-0.18446 -11.4495,-0.4099 z m 54.7461,-57.18911 c 5.5269,-2.5183 8.4224,-9.90933 6.5217,-16.64796 -2.1782,-7.72223 -9.815,-11.00687 -25.5992,-11.00999 l -12.707,0 0,14.75633 0,14.7565 13.8597,0 c 7.6225,0 15.6888,-0.83357 17.9248,-1.85227 z m 127.2577,28.08602 c 0,-22.41167 -0.4932,-29.56069 -2.0495,-29.71106 -1.1273,-0.10986 -3.7097,-0.21018 -5.7386,-0.22478 -3.2579,-0.023 -3.6892,-0.86276 -3.6892,-7.18017 0,-7.08231 0.058,-7.15347 5.7386,-7.15347 5.4808,0 5.7387,-0.26168 5.7387,-5.81997 0,-13.91996 9.5079,-22.03733 25.8238,-22.04718 l 10.2476,0 0,7.37825 c 0,7.25396 -0.092,7.37825 -5.4107,7.37825 -6.6176,0 -9.3457,2.48875 -9.3457,8.5258 0,4.263 0.4683,4.59092 6.5583,4.59092 l 6.5584,0 0,7.15346 c 0,6.31741 -0.4311,7.15656 -3.6891,7.18017 -10.1681,0.0738 -9.4276,-2.27774 -9.4276,29.93584 l 0,29.51299 -10.6575,0 -10.6575,0 0,-29.51299 z m 390.2272,28.90732 c 0,-0.333 8.4849,-22.96505 18.8556,-50.29326 10.3706,-27.3282 18.8556,-49.9281 18.8556,-50.22208 0,-0.29415 5.4547,-0.53468 12.1216,-0.53468 10.0205,0 12.3177,0.4973 13.2521,2.86932 0.9683,2.4563 9.0109,24.01112 32.1181,86.07939 l 4.7308,12.70698 -11.9563,0 -11.9566,0 -2.9428,-9.42776 c -1.6184,-5.18528 -3.7185,-10.38661 -4.6666,-11.55859 -2.1747,-2.68798 -37.2592,-2.34235 -38.187,0.37628 -0.3294,0.96507 -2.1529,5.99703 -4.0522,11.18231 l -3.4534,9.42776 -11.3592,0 c -6.2479,0 -11.3597,-0.2725 -11.3597,-0.60567 z m 62.3053,-39.40607 c 0,-0.94688 -11.7019,-34.49986 -12.2213,-35.04208 -0.4997,-0.52173 -12.411,32.62479 -12.3882,34.47346 0,0.67634 5.5491,1.22971 12.3124,1.22971 6.7634,0 12.2971,-0.29742 12.2971,-0.66109 z m 204.9513,3.1205 0,-36.89123 9.8377,0 9.8375,0 0,5.28364 c 0,5.1087 0.079,5.17002 2.4028,1.85341 6.0638,-8.6573 26.3162,-11.74797 36.4583,-5.56385 9.6093,5.85916 10.9208,10.70616 11.6646,43.10618 l 0.6679,29.10309 -10.7275,0 -10.7275,0 -0.5226,-26.06669 c -0.459,-22.88863 -0.9036,-26.48676 -3.6462,-29.51299 -4.0422,-4.46007 -13.915,-4.62205 -19.2395,-0.31561 -3.7334,3.01967 -3.8894,4.06753 -4.3936,29.51298 l -0.5226,26.38231 -10.5447,0 -10.5446,0 0,-36.89124 z M 2166.655,-902.66204 c -70.4891,-3.88658 -120.4993,-47.4592 -136.2442,-118.70666 -3.9584,-17.913 -3.9395,-60.2935 0.035,-78.5014 6.628,-30.3634 18.4702,-54.024 36.7512,-73.4288 13.9367,-14.7939 25.1234,-23.0297 42.0656,-30.969 23.7374,-11.1237 37.9396,-13.7748 72.9684,-13.6209 25.78,0.1125 32.3018,0.6692 43.4498,3.7057 27.405,7.4641 50.7746,21.9887 64.0979,39.8379 15.5592,20.8441 21.978,37.1218 27.5511,69.8662 l 0.907,5.3287 -45.5687,0 -45.5685,0 -2.7704,-8.7879 c -7.53,-23.8888 -26.6104,-37.1929 -50.2645,-35.0479 -34.4151,3.1207 -52.8485,31.8818 -52.7894,82.3666 0.037,32.176 6.3214,52.9018 20.547,67.76925 10.0294,10.48217 17.5771,13.82926 33.1088,14.68255 11.1008,0.60987 14.559,0.1377 21.7867,-2.97089 14.0538,-6.04582 25.4418,-22.11431 29.2823,-41.31771 l 0.9104,-4.5512 45.9196,0 45.92,0 -0.7872,11.8871 c -0.9283,14.0225 -8.2602,36.48054 -16.2612,49.80879 -7.5468,12.57198 -24.5133,30.62144 -36.3217,38.64044 -28.6281,19.44104 -56.8957,26.31534 -98.7252,24.00913 z m -1011.6397,-0.89395 c -48.4138,-6.57068 -81.438,-30.40737 -95.3934,-68.85389 -7.9259,-21.83536 -8.7018,-34.40342 -8.7122,-141.11232 l -0.017,-98.8115 47.1388,0.435 47.1388,0.435 0.3172,96.7371 c 0.3684,112.3592 0.3656,112.3326 13.5335,125.50052 8.6334,8.63317 16.7438,11.41643 33.1942,11.39084 13.7864,-0.022 25.7144,-5.46741 31.6633,-14.45695 9.7577,-14.74471 9.6531,-13.50891 10.2707,-121.20471 l 0.5665,-98.7865 46.6356,0 46.6355,0 0,99.8975 c 0,62.708 -0.6606,104.6471 -1.7743,112.65573 -7.4864,53.82389 -38.692,85.15797 -94.5018,94.89036 -13.0613,2.27782 -63.1967,3.11688 -76.7028,1.28382 z m 228.7256,-157.06351 0,-151.6639 47.9587,0.059 47.9587,0.059 43.4496,80.1266 c 38.0938,70.25 43.6024,79.5903 44.6881,75.7734 0.681,-2.3942 1.1439,-7.6734 1.028,-11.7315 -0.1162,-4.058 -0.1198,-38.1946 0,-75.8588 l 0.2012,-68.4807 43.8595,0.4365 43.8598,0.437 0,150.844 0,150.84424 -45.9092,0.3664 -45.9092,0.36627 -26.1595,-47.09509 c -14.3881,-25.90244 -35.0471,-62.93492 -45.9091,-82.29472 l -19.7494,-35.1993 -0.4251,82.33806 -0.4251,82.33815 -44.2542,0 -44.2545,0 0,-151.66401 z m 329.5618,0 0,-151.7142 47.1388,0.435 47.1388,0.435 0,52.0584 0,52.0583 43.4497,0 43.4496,-2e-4 0,-52.0581 0,-52.0584 47.1389,-0.435 47.1388,-0.435 0,151.689 0,151.68923 -47.4615,0 -47.4615,0 -0.03,-59.43579 -0.03,-59.43594 -42.7277,0 -42.728,0 -0.3693,59.02587 -0.369,59.02595 -47.1388,0.43506 -47.1388,0.43517 0,-151.71435 z m 644.367,0 0,-151.6639 93.0479,0.033 c 53.0015,0.019 97.9153,0.7361 104.3576,1.6672 47.256,6.8308 76.7283,36.4092 79.1756,79.4611 1.925,33.8599 -12.0537,64.1541 -35.8815,77.7629 l -8.0192,4.58 5.1561,2.1355 c 7.7057,3.1918 19.7594,15.9027 25.6298,27.0268 7.7819,14.7467 11.6414,31.09181 13.6749,57.91455 1.614,21.28748 4.07,37.4443 7.4574,49.05823 l 1.0758,3.68911 -46.6384,0 -46.6384,0 -1.8713,-8.10587 c -1.0289,-4.45827 -2.669,-14.97232 -3.6446,-23.36438 -4.3553,-37.46842 -5.1317,-42.59875 -7.4306,-49.11464 -3.5041,-9.93145 -9.9984,-17.689 -17.7592,-21.2134 -5.812,-2.6392 -11.0164,-3.0697 -37.4915,-3.1007 l -30.7427,-0.036 0,52.46749 0,52.4675 -46.7289,0 -46.7288,0 0,-151.66389 z m 168.06,-23.7744 c 14.1279,-7.0638 19.4529,-23.749 12.2969,-38.531 -6.4537,-13.3313 -23.2986,-17.779 -63.9447,-16.8836 l -22.1346,0.4877 -0.4477,30.0441 -0.4472,30.0442 33.2396,-0.5312 c 31.629,-0.5054 33.6368,-0.7299 41.4377,-4.6302 z m -857.9261,-232.4438 c -4.7344,-2.3862 -8.608,-5.1732 -8.608,-6.1937 0,-2.5935 34.19,-35.5414 50.0082,-48.1913 28.2304,-22.5762 78.4884,-52.9289 106.1758,-64.1233 5.1915,-2.0989 8.6598,-4.2978 7.7076,-4.8862 -2.3357,-1.4436 -30.4513,-0.3727 -46.6594,1.7774 -29.0196,3.8494 -75.3441,16.4124 -132.8085,36.0169 -25.8057,8.8037 -53.6598,15.5668 -81.9805,19.9046 -55.6637,8.5263 -139.9592,2.3481 -181.4594,-13.2995 -6.1621,-2.3233 -11.4054,-5.834 -15.539,-10.4048 l -6.2385,-6.8982 31.1151,-1.0516 c 41.477,-1.4019 46.1744,-2.3676 99.9789,-20.5564 63.0041,-21.2987 107.1925,-29.8 186.0958,-35.802 52.1499,-3.9674 85.4561,-2.8469 126.2501,4.2464 18.8057,3.27 49.6062,10.6872 53.9244,12.9856 1.2521,0.6667 8.6304,-0.5522 16.3961,-2.7086 52.9027,-14.6888 104.125,-19.4536 164.1436,-15.2692 81.3967,5.6749 128.5526,14.7691 198.6766,38.3163 47.6519,16.0008 54.5235,17.3732 92.7642,18.524 17.3594,0.5226 31.5625,1.4706 31.5625,2.107 0,0.6363 -3.1144,4.2405 -6.9209,8.0093 -7.4652,7.3912 -15.8882,10.6028 -43.5384,16.6002 -30.1342,6.5362 -52.6362,8.7741 -88.9075,8.8424 -35.8285,0.067 -52.7955,-1.4144 -83.6202,-7.3041 -25.2505,-4.8246 -32.4235,-6.8477 -81.4769,-22.9805 -50.5108,-16.6119 -80.4431,-24.6576 -105.4387,-28.3415 -18.4765,-2.7229 -48.3146,-4.5431 -51.9034,-3.1656 -1.2053,0.4623 9.4267,6.5495 23.6264,13.527 24.094,11.8395 31.2099,15.8774 54.5108,30.9328 23.7864,15.3693 60.8292,46.0094 76.3244,63.1322 4.9146,5.4306 8.9353,10.3059 8.9353,10.8338 0,0.5281 -2.3979,1.9998 -5.3287,3.2708 -2.9308,1.2711 -7.5534,3.3499 -10.2725,4.6194 l -4.9437,2.3085 -21.29,-21.5879 c -37.8377,-38.367 -74.38,-66.507 -108.3916,-83.4686 -17.4594,-8.7071 -43.9689,-18.1545 -50.9417,-18.1545 -6.6028,0 -32.739,9.3455 -50.5118,18.0618 -33.107,16.2364 -67.7298,42.5037 -105.3218,79.905 -13.8224,13.7522 -25.6617,24.959 -26.3093,24.9042 -0.6475,-0.056 -5.0511,-2.052 -9.7854,-4.4381 z m -268.4862,-152.3869 c -8.4794,-1.1555 -36.9977,-8.6204 -49.9211,-13.0669 -37.3399,-12.8477 -74.7387,-34.1586 -99.3843,-56.6322 -11.7221,-10.6892 -27.4033,-30.1971 -32.7417,-40.732 l -4.0014,-7.8963 20.9048,10.4581 c 25.8756,12.9449 43.9953,19.0976 72.5152,24.6233 86.5779,16.7748 100.2653,20.0605 160.879,38.6178 28.8983,8.8475 48.7849,13.6327 50.3754,12.1216 1.5223,-1.4457 -3.3857,-5.3449 -23.1676,-18.4059 -25.1649,-16.6154 -37.1905,-25.9993 -52.6074,-41.0512 -25.4729,-24.8695 -35.6443,-45.3252 -50.3055,-101.1683 -6.579,-25.0591 -13.0734,-41.9317 -20.438,-53.0991 -3.2025,-4.8561 -5.4651,-9.1873 -5.0277,-9.6248 3.92,-3.9197 24.9755,10.7604 49.6704,34.6308 43.6338,42.1771 76.0678,81.3128 90.4518,109.1416 12.7597,24.6858 25.4534,44.0256 43.5711,66.3815 7.855,9.6929 14.0001,17.9051 13.6558,18.2494 -1.9047,1.9047 -45.3296,13.1743 -69.3314,17.9927 -45.5081,9.1361 -75.5486,12.1244 -95.0974,9.4599 z m 866.534,-1.5033 c -25.4976,-3.4478 -70.1651,-12.7456 -93.3785,-19.4377 -11.2288,-3.237 -20.7304,-6.1999 -21.115,-6.5844 -0.3845,-0.3845 1.6372,-3.4943 4.4926,-6.9109 26.0993,-31.2295 37.3371,-47.5276 51.4406,-74.6055 12.9919,-24.9437 14.5012,-27.3912 24.0506,-39.0008 28.7772,-34.9865 76.305,-83.7311 94.7792,-97.2056 9.9921,-7.2879 20.98,-12.2863 22.8651,-10.4013 0.5139,0.5138 -2.0343,5.5677 -5.6626,11.2308 -8.6794,13.5463 -13.3413,25.8368 -22.5632,59.4848 -12.8126,46.7489 -22.3843,65.9005 -44.7389,89.5155 -15.317,16.1803 -29.4525,27.4739 -58.2919,46.5721 -10.8939,7.2144 -20.0574,13.9743 -20.3631,15.0223 -0.9325,3.1976 11.5494,0.7395 40.6118,-7.998 14.8794,-4.4735 34.0629,-10.2289 42.6298,-12.7904 23.9551,-7.1623 52.3186,-14.0062 81.1608,-19.5839 14.4285,-2.7902 35.6977,-6.9079 47.2649,-9.1499 27.6582,-5.361 42.5944,-10.4518 70.1514,-23.9098 l 22.7974,-11.1335 -4.2793,7.6651 c -7.7838,13.942 -14.2981,22.2963 -27.7613,35.6029 -27.23,26.9131 -63.061,47.9207 -107.4156,62.9778 -38.1597,12.9541 -60.9846,15.4663 -96.6748,10.6404 z m -904.245,-113.132 c -10.3509,-3.8396 -35.9567,-10.0117 -57.2445,-13.7983 -38.8436,-6.9095 -62.3044,-15.7824 -98.3009,-37.178 -16.419,-9.759 -25.275,-16.4108 -37.619,-28.2556 -35.1609,-33.7385 -64.8094,-82.4347 -73.1516,-120.1478 -2.3213,-10.4932 -3.781,-27.5017 -2.3606,-27.5017 0.6861,0 13.4605,12.3954 28.3873,27.5454 31.1542,31.62 46.8105,44.5833 75.2577,62.3129 23.9984,14.9571 42.6977,30.1072 71.352,57.8094 25.9851,25.1217 37.1318,33.6132 47.3381,36.0616 15.8696,3.8071 15.8419,1.4862 -0.3834,-32.0654 -13.7918,-28.5194 -18.0654,-38.6471 -24.3278,-57.6499 -12.8254,-38.9189 -17.7178,-78.6736 -16.8161,-136.6439 l 0.1657,-10.6574 4.0811,4.9187 c 15.1115,18.2148 41.0062,60.5723 54.4756,89.1097 15.6418,33.1391 20.2416,52.1077 28.2899,116.6615 3.9795,31.9184 7.9981,61.317 9.2448,67.6339 1.0094,5.1136 0.6412,5.1946 -8.3883,1.8449 z m 984.586,-0.044 c 0,-1.409 1.4392,-13.735 3.1985,-27.3907 1.7591,-13.6559 4.7645,-37.7407 6.6787,-53.522 6.684,-55.1108 10.697,-71.8515 24.1722,-100.836 14.1134,-30.3573 41.6716,-75.2938 55.8062,-90.9984 l 6.6408,-7.3782 -0.5575,31.9723 c -1.1721,67.227 -11.0965,108.8653 -40.2552,168.8908 -7.2308,14.8853 -13.3105,29.2729 -13.5104,31.9723 -0.3529,4.7656 -0.1652,4.8994 6.4676,4.6112 12.5441,-0.5449 24.6545,-9.0713 56.9185,-40.0745 25.4452,-24.4507 48.1017,-42.8336 65.7401,-53.3393 24.5261,-14.608 45.5761,-31.9077 75.8718,-62.354 l 29.9228,-30.0718 -0.027,7.8085 c -0.1835,50.3466 -53.3334,132.2808 -107.366,165.5123 -37.4927,23.059 -63.7279,33.5629 -101.6559,40.7008 -24.8589,4.6783 -49.9961,10.6867 -61.0754,14.5984 -6.2746,2.2156 -6.9683,2.2054 -6.9683,-0.1017 z m -180.3572,-132.0986 c -8.8131,-0.8972 -15.3149,-2.7657 -22.9497,-6.5955 -9.2571,-4.6437 -10.8221,-6.0952 -11.9467,-11.0822 -0.7121,-3.1563 -0.8552,-44.4745 -0.3178,-91.8182 1.2929,-113.9642 -1.423,-146.8398 -14.1556,-171.3393 -16.7021,-32.1378 -21.9355,-44.0413 -29.9945,-68.2224 -8.4459,-25.3423 -12.2714,-40.075 -36.9159,-142.1702 -8.1027,-33.5663 -13.1124,-49.8868 -26.1723,-85.2596 -24.7522,-67.0427 -31.6803,-93.901 -31.5858,-122.4484 0.061,-18.1235 2.5715,-28.7218 9.1681,-38.6899 3.6727,-5.5498 5.0482,-6.3972 10.3602,-6.3834 17.0469,0.044 36.298,17.5407 49.5944,45.0733 8.5661,17.7373 15.0856,35.6078 32.002,87.719 13.5253,41.6654 21.1918,58.1319 32.4581,69.7146 8.8989,9.149 16.3239,12.1004 24.9764,9.9287 7.8061,-1.9591 13.9956,-23.4008 13.9975,-48.4906 0,-36.5119 -15.9914,-77.0408 -46.4415,-117.6821 -13.6849,-18.2651 -23.3118,-26.5088 -84.0655,-71.988 -51.5193,-38.5667 -73.3031,-56.3786 -95.6475,-78.2085 -33.4153,-32.6458 -49.6735,-56.8802 -58.429,-87.0941 -6.5719,-22.6781 -4.673,-40.0233 5.3577,-48.9427 12.7035,-11.296 54.2728,18.7273 128.2236,92.6087 16.6829,16.6673 48.7784,46.1141 71.323,65.4377 119.3308,102.2802 176.9686,160.1199 202.7051,203.4134 7.875,13.2474 9.2244,17.7035 11.3663,37.5366 2.1674,20.07 2.1092,118.5302 -0.099,166.7419 -2.4195,52.8364 -6.3702,127.5602 -7.308,138.2258 -0.4362,4.96 -1.232,16.3962 -1.7688,25.414 -0.5368,9.0178 -3.4925,40.3754 -6.5681,69.6834 -8.1341,77.5076 -10.4017,102.9792 -11.4589,128.7094 -1.5258,37.1418 -2.036,43.7328 -3.492,45.1147 -0.7592,0.7205 -12.4475,3.2013 -25.9743,5.5131 -36.352,6.2124 -55.9488,7.6469 -76.2419,5.5808 z m -667.3215,-2.1542 c -7.6652,-1.2763 -21.3148,-3.6664 -30.3327,-5.3109 l -16.3961,-2.9903 -0.4167,-19.5973 c -0.5408,-25.4528 -3.9322,-64.7125 -11.8903,-137.6494 -5.5314,-50.6973 -10.4919,-118.6685 -13.9403,-191.0146 -0.4941,-10.3705 -1.2256,-25.4959 -1.6252,-33.6119 -0.3995,-8.1162 -1.1225,-29.5131 -1.6066,-47.5489 -0.4842,-18.0357 -1.2771,-44.5972 -1.7621,-59.026 -1.054,-31.3607 1.6549,-89.7353 4.7709,-102.8069 4.1728,-17.504 23.1158,-44.5826 57.125,-81.6594 30.3147,-33.0489 73.5609,-72.8711 159.5452,-146.9124 25.2472,-21.7405 52.1731,-46.4033 59.8353,-54.8063 16.7793,-18.4014 56.9785,-56.0893 76.7033,-71.9118 17.8368,-14.3076 36.5197,-25.6477 46.6379,-28.3075 7.324,-1.9255 7.9701,-1.8223 11.9384,1.9056 13.0672,12.2761 10.608,43.6584 -5.91,75.416 -9.3189,17.917 -20.9095,32.7009 -43.2037,55.1075 -27.6057,27.7448 -53.7424,49.2796 -109.115,89.9029 -36.9144,27.0816 -58.7065,45.0498 -68.179,56.2155 -28.1369,33.1663 -48.25,74.8396 -53.3748,110.5905 -3.6594,25.5275 3.8124,60.8468 13.6,64.2889 12.8839,4.531 27.5809,-6.9956 39.0001,-30.5878 3.667,-7.576 14.4035,-37.3224 23.8586,-66.1031 28.0303,-85.3206 44.143,-111.0489 71.9298,-114.8577 6.5865,-0.9027 8.2852,-0.5207 11.6218,2.614 7.3627,6.9169 11.197,18.9857 12.0031,37.7806 1.27,29.6145 -5.4392,57.0031 -31.0433,126.7245 -16.5503,45.0675 -17.1244,47.1443 -44.7622,161.847 -12.627,52.4064 -24.3648,86.9802 -39.2455,115.5992 -23.293,44.7976 -23.065,43.0739 -23.0999,174.6813 -0.033,120.7582 1.1948,111.1175 -15.136,118.9732 -9.0491,4.353 -10.7323,4.582 -36.5397,4.9698 -17.5383,0.2637 -31.9553,-0.4094 -40.9903,-1.9143 z m 302.4116,0.1867 c -3.0355,-2.2181 -3.2206,-5.3978 -4.0025,-68.7294 -0.4508,-36.5221 -1.4335,-67.0175 -2.1839,-67.7677 -0.7505,-0.7503 -8.8665,-1.7882 -18.0357,-2.3064 -19.9292,-1.1266 -27.2055,-4.0119 -31.1903,-12.3686 -2.5591,-5.3664 -2.7708,-20.2172 -2.7032,-189.7296 0.079,-197.6545 -0.036,-194.7947 8.4336,-211.4225 8.0869,-15.8779 16.5233,-23.2213 42.0785,-36.6261 19.4692,-10.2126 25.6586,-15.3585 30.8894,-25.681 6.6302,-13.084 5.1792,-22.0703 -6.3642,-39.4162 -17.2647,-25.9428 -21.5788,-38.3159 -21.2465,-60.9387 0.3755,-25.581 8.1593,-50.2104 18.6607,-59.047 12.2679,-10.3226 31.8633,-15.2266 52.6552,-13.178 17.0521,1.6803 27.7963,6.4606 36.8941,16.415 11.6883,12.7891 17.8751,36.69 16.3117,63.0163 -1.0596,17.8433 -5.3867,30.0793 -16.5913,46.9157 -12.3949,18.6255 -14.3314,22.9021 -14.4004,31.8017 -0.071,9.2963 4.4277,19.051 12.1199,26.2746 2.9404,2.7612 13.3991,9.2287 23.2415,14.3722 21.3795,11.1723 35.0845,23.1029 41.0675,35.7499 9.4193,19.9106 9.1751,13.8922 8.6987,214.3996 -0.41,172.569 -0.619,184.4312 -3.3222,188.5563 -4.7785,7.292 -11.8955,9.8573 -30.2373,10.8988 -9.1992,0.5226 -17.5219,1.7469 -18.4949,2.7208 -1.1935,1.1948 -1.8864,22.8766 -2.1297,66.6424 -0.3402,61.2104 -0.5369,65.0659 -3.484,68.3222 -3.0574,3.3785 -4.2896,3.4512 -58.3028,3.4512 -45.0479,0 -55.7635,-0.427 -58.3619,-2.3255 z m -589.0412,-55.0502 c -51.6087,-21.7993 -96.8064,-62.9225 -130.6606,-118.8825 -22.2403,-36.7623 -41.9347,-93.7274 -41.7528,-120.7688 l 0.047,-7.1207 6.9281,13.1168 c 13.2502,25.0861 19.2616,32.3409 61.8183,74.6023 47.2373,46.9101 59.0851,60.5448 81.0918,93.3234 14.1222,21.0346 15.3846,22.4497 16.2343,18.2011 1.4246,-7.1229 -0.38,-16.2429 -5.5218,-27.9044 -7.2099,-16.3522 -8.9931,-29.6665 -8.8939,-66.4042 0.1018,-37.4162 2.5731,-56.3561 11.636,-89.158 6.7932,-24.588 10.4102,-42.3679 10.4102,-51.1728 0,-20.6627 14.7264,11.5513 22.0645,48.2655 7.4745,37.3972 9.8111,62.7758 9.6843,105.1822 -0.094,31.5844 -0.7838,43.3956 -3.4938,59.8459 -8.742,53.0607 -12.7457,75.4164 -13.4985,75.3732 -0.4509,-0.026 -7.6934,-2.9505 -16.0939,-6.499 z m 1274.5904,4.5029 c -0.3439,-1.1297 -1.5019,-7.9568 -2.5736,-15.1711 -1.0717,-7.2142 -3.7168,-22.2122 -5.8783,-33.3286 -6.1002,-31.3749 -8.8608,-57.8005 -8.8455,-84.6742 0.036,-62.1304 11.8827,-131.4822 26.4773,-154.9923 l 3.5625,-5.7386 1.1423,4.9188 c 0.6281,2.7053 2.0326,10.6514 3.121,17.658 1.0884,7.0064 4.4614,21.394 7.4953,31.9723 10.4478,36.4259 14.9674,73.3382 13.1964,107.7723 -1.352,26.2819 -4.125,40.2559 -10.6367,53.6031 -4.8682,9.9791 -6.2034,18.8873 -4.0392,26.9523 0.7633,2.8446 3.8812,-0.86 16.7835,-19.9407 21.5408,-31.856 41.3466,-54.4927 82.5881,-94.3931 35.7883,-34.6244 47.3964,-48.514 60.1539,-71.9764 6.6792,-12.2838 7.2723,-12.4262 6.8287,-1.6396 -1.6031,38.9912 -33.3432,110.9003 -67.5252,152.9826 -16.8184,20.7059 -44.4966,46.608 -63.7397,59.6499 -20.5127,13.9022 -56.8802,30.39 -58.1108,26.3454 z m -1345.7132,-197.8363 c -31.8757,-20.2149 -71.1016,-74.5469 -96.3665,-133.4777 -18.3577,-42.8202 -27.2306,-83.2317 -25.8062,-117.5337 0.8981,-21.6262 4.4784,-38.1468 6.929,-31.9724 0.7158,1.8036 3.398,8.6439 5.9604,15.2007 6.746,17.2623 14.4345,31.9643 27.7,52.9696 6.4329,10.1862 14.5435,24.1011 18.0234,30.9218 11.4078,22.3603 26.7592,64.0707 40.1636,109.1266 4.9204,16.5385 10.3033,28.0982 15.1043,32.4363 3.1842,2.8772 3.2326,2.6542 4.0937,-18.8556 0.5996,-14.9758 2.2522,-27.9056 5.2963,-41.4423 5.7216,-25.4421 16.1292,-57.4598 21.0523,-64.7645 2.1272,-3.1564 9.6269,-16.4372 16.6661,-29.513 18.7201,-34.7734 26.8999,-47.5487 30.4455,-47.5487 0.6319,0 1.6538,2.3979 2.2708,5.3286 5.5675,26.4428 5.9996,55.4507 1.1564,77.6415 -6.0413,27.6797 -16.3381,51.9227 -36.0857,84.9618 -14.3307,23.9756 -18.6669,34.8776 -23.8601,59.9887 -2.2915,11.0801 -4.4177,20.3968 -4.7249,20.7042 -0.3074,0.3073 -3.9159,-1.57 -8.0184,-4.1719 z m 1423.7729,-1.3206 c -0.8385,-3.4147 -2.7573,-12.8083 -4.2637,-20.8742 -3.3159,-17.7533 -9.5173,-33.0971 -21.6476,-53.5623 -29.1849,-49.2373 -40.1252,-82.0789 -40.2353,-120.7809 -0.068,-24.4141 4.3324,-50.6821 7.9848,-47.6511 4.3984,3.6504 11.7834,15.55 26.9767,43.4691 8.2578,15.1744 16.633,30.1724 18.6115,33.3288 7.1876,11.4658 21.2332,58.0303 25.3788,84.1353 0.9757,6.1451 1.9119,18.4191 2.0804,27.276 0.2203,11.6014 0.8471,15.8958 2.2414,15.3606 3.5622,-1.3669 11.7688,-19.2066 16.8335,-36.5933 7.1738,-24.6269 14.7797,-46.5397 25.6093,-73.7826 11.9275,-30.0049 16.3889,-38.9352 31.125,-62.3052 14.7374,-23.3717 22.7765,-39.1475 29.6612,-58.2061 4.9608,-13.7333 5.4456,-14.4591 6.9918,-10.4653 3.079,7.9541 5.187,23.2755 5.187,37.7014 0,59.4029 -31.8676,140.226 -79.3794,201.3234 -14.0766,18.1012 -34.8517,38.4052 -45.3128,44.2844 l -6.3178,3.5509 -1.5248,-6.2089 z m -1451.5965,-169.7597 c -25.4345,-51.0884 -36.2914,-99.4036 -36.3832,-161.9117 -0.045,-31.557 0.2703,-35.1437 5.1772,-58.6653 5.9526,-28.5343 15.6325,-59.5999 23.998,-77.0161 4.9605,-10.3277 18.9957,-28.2796 22.1094,-28.2796 0.5874,0 0.7912,13.8343 0.453,30.7428 -0.5218,26.0707 -0.053,34.2308 3.0855,53.6973 2.341,14.5206 3.9484,32.9239 4.3746,50.0883 0.5942,23.9461 -0.025,32.6856 -5.2719,74.3915 -3.2701,25.9921 -5.5752,47.6285 -5.1221,48.0814 0.9995,0.9995 4.1887,-5.9423 10.7304,-23.3567 11.0103,-29.3097 31.3193,-58.0457 62.6349,-88.6241 22.8073,-22.2705 68.6052,-59.4938 68.6052,-55.7603 0,0.55 -2.4864,5.9622 -5.525,12.0266 -3.0388,6.0646 -9.7696,22.8317 -14.9573,37.2602 -5.1878,14.4288 -12.3886,32.1366 -16.0015,39.3508 -8.7916,17.5545 -27.632,45.0517 -39.8675,58.1859 -29.7843,31.9715 -55.7267,72.0318 -63.9856,98.8067 -1.5995,5.1853 -3.3496,9.4278 -3.8895,9.4278 -0.5397,0 -5.1139,-8.3006 -10.1646,-18.4455 z m 1475.4191,9.7645 c -7.7107,-24.4605 -30.5811,-61.6872 -53.8952,-87.7256 -37.0282,-41.3551 -50.7072,-64.027 -66.9382,-110.9449 -4.6682,-13.4943 -10.9855,-29.6842 -14.0387,-35.9776 -3.053,-6.2935 -5.3119,-11.6817 -5.0197,-11.974 0.2924,-0.2922 9.6803,6.4287 20.8622,14.9354 59.4522,45.2277 95.6071,89.207 113.022,137.4808 5.6687,15.7143 8.7401,19.8844 7.3347,9.9598 -0.4883,-3.4482 -3.1503,-26.1906 -5.916,-50.5388 -6.2189,-54.7532 -6.312,-73.9647 -0.5433,-112.3133 3.4961,-23.2438 4.3016,-34.3783 4.2413,-58.6266 -0.071,-29.2949 0,-29.8965 3.1589,-28.2029 14.0275,7.5073 32.9668,55.0622 43.6695,109.65 9.6806,49.3745 3.2941,123.5258 -15.1215,175.5723 -4.9133,13.8855 -25.3948,57.3864 -27.0192,57.3864 -0.5832,0 -2.2918,-3.9064 -3.7968,-8.681 z m -1424.4425,-196.7111 c -11.6416,-43.2329 -13.2864,-101.2195 -4.0106,-141.3847 6.8034,-29.4583 26.2662,-71.6667 42.4433,-92.0448 10.0546,-12.6654 26.8196,-26.6691 34.8871,-29.1406 3.4635,-1.0611 3.4441,-0.8449 -1.2826,14.1447 -10.5264,33.3845 -15.9404,58.3792 -19.4559,89.8248 -1.9091,17.0771 -9.5219,44.6359 -19.7864,71.6286 -4.1269,10.8526 -6.0348,17.9734 -5.0735,18.9347 0.9614,0.9615 7.9125,-6.6828 18.4835,-20.327 33.9696,-43.8441 54.5149,-61.4181 93.0812,-79.6195 10.4804,-4.9464 22.7444,-10.7414 27.2533,-12.8779 4.5088,-2.1364 10.596,-5.4525 13.5268,-7.3688 2.9308,-1.9163 5.3287,-3.0016 5.3287,-2.4116 0,0.59 -2.2581,5.6428 -5.0179,11.2284 -11.5618,23.4005 -43.0867,65.2793 -68.6579,91.2084 -5.9743,6.0578 -24.1212,20.8356 -40.3264,32.8395 -20.7551,15.3743 -35.3842,27.8072 -49.4943,42.0638 l -20.0305,20.2388 -1.8679,-6.9368 z m 1365.0946,-13.4295 c -13.1929,-13.3207 -29.2089,-27.0031 -48.6101,-41.5269 -30.6531,-22.9469 -49.4382,-41.0863 -73.4046,-70.8813 -18.5907,-23.1123 -41.1265,-58.0763 -41.1265,-63.8076 0,-0.9144 3.5046,0.3811 7.7881,2.8786 4.2835,2.4979 10.3706,5.743 13.5269,7.2116 65.9408,30.684 73.3186,36.275 112.6201,85.3449 12.1136,15.1248 22.6642,27.1045 23.4452,26.6217 1.7208,-1.0635 0.3802,-5.8161 -6.4443,-22.8491 -7.1361,-17.8108 -18.1277,-55.9319 -18.1277,-62.8713 0,-17.1941 -9.5481,-63.963 -19.4071,-95.0604 -2.6447,-8.3414 -4.3404,-15.1596 -3.7681,-15.151 3.1479,0.045 18.9937,10.7536 25.9579,17.5396 24.3476,23.7245 47.5776,71.7487 55.75,115.2535 2.289,12.1851 2.9021,23.6078 2.8158,52.4675 -0.1,33.3593 -0.5259,38.8677 -4.4526,57.5375 -6.5121,30.9611 -3.8467,30.2294 -26.563,7.2927 z m -1288.5022,-138.1077 c -1.6693,-1.6694 -1.2038,-15.4579 0.764,-22.6398 4.6261,-16.8837 20.1992,-42.0965 37.0056,-59.9121 20.0986,-21.3054 85.9036,-67.1577 96.3817,-67.1577 1.9546,0 2.521,1.9437 2.5086,8.6081 -0.027,14.9074 -8.1774,29.081 -34.1756,59.4358 -18.7453,21.8867 -18.071,21.3081 -40.4106,34.6788 -25.6488,15.3513 -37.797,24.2985 -50.1866,36.9623 -5.9597,6.0916 -11.3088,10.6028 -11.8871,10.0246 z m 1221.2783,-11.0334 c -12.4825,-12.8165 -21.4703,-19.3501 -49.4611,-35.955 -14.9624,-8.876 -20.714,-13.4868 -31.4713,-25.2286 -30.7717,-33.5888 -43.1377,-52.8595 -43.3597,-67.5711 -0.067,-4.5119 0.3695,-8.6965 0.9721,-9.2991 3.7039,-3.7039 52.2925,26.458 80.1938,49.7814 30.3008,25.3291 54.4581,61.7746 56.5995,85.3899 1.4516,16.01 -0.3193,16.3888 -13.4733,2.8825 z" id="path2820-3" style="fill:#025dab"/>
    </g>
  </g>
</svg>